# xmcd CD database file
#
# Track frame offsets:
#	150
#	48417
#	71342
#	91850
#	130042
#	150425
#	173240
#	193742
#	215597
#
# Disc length: 3157 seconds
#
# Revision: 0
# Processed by: cddbd v1.5.1PL0 Copyright (c) Steve Scherf et al.
# Submitted via: CDex 1.51
#
DISCID=730c5309
DTITLE=Joe Wilder - Wilder N Wilder (bonus tracks)
DYEAR=1956
DGENRE=Jazz
TTITLE0=Cherokee
TTITLE1=Prelude to a Kiss
TTITLE2=My Heart Stood Still
TTITLE3=Sixbit Blues
TTITLE4=Mad About the Boy
TTITLE5=Darn That Dream
TTITLE6=My Heart Stood Still (take 3)*
TTITLE7=My Heart Stood Still (take 5)*
TTITLE8=Darn That Dream (take 3)*
EXTD=YEAR: 1956
EXTT0=
EXTT1=
EXTT2=
EXTT3=
EXTT4=
EXTT5=
EXTT6=
EXTT7=
EXTT8=
PLAYORDER=
